<svg xmlns="http://www.w3.org/2000/svg" xmlns:xlink="http://www.w3.org/1999/xlink" width="485.576" height="299.488" viewBox="0 0 485.576 299.488"><defs><path id="a" d="M25.697 0C11.563 0 0 11.563 0 25.696v248.096c0 14.133 11.563 25.696 25.697 25.696h434.182c14.133 0 25.697-11.563 25.697-25.696V25.696C485.576 11.563 474.012 0 459.879 0H25.697z"/></defs><clipPath id="b"><use xlink:href="#a" overflow="visible"/></clipPath><radialGradient id="c" cx="-1069.368" cy="449.691" r=".999" gradientTransform="matrix(467.0096 0 0 -467.0096 499492.594 210075.156)" gradientUnits="userSpaceOnUse"><stop offset="0" stop-color="#7fd5f7"/><stop offset="1" stop-color="#0078bf"/></radialGradient><path clip-path="url(#b)" fill="url(#c)" d="M0 0h485.576v299.488H0z"/><path fill="#FFF" d="M285.751 132.581v10.681h30.821v11.986h-30.821v11.688h34.519l16.034-17.235-15.355-17.12zM135.412 153.82h19.164l-9.609-23.412z"/><path fill="#FFF" d="M393.741 108.744h-36.527l-11.593 12.546-10.858-12.546h-66.816v.041h-38.604l-9.145 21.158-9.391-21.158h-42.929v9.675l-4.716-9.675h-36.611l-34.717 81.917h41.705l5.408-13.046h12.108l5.395 13.046h47.197v-9.974l4.212 10.016h24.501l4.213-10.165v10.123h31.373v.015h65.396l11.944-12.742 11.254 12.742 25.401.023v.004h11.799v-14.312l-23.419-26.524 23.419-25.083.001-16.081zm-147.002 70.422l-.053-46.001-20.358 46.001h-12.326l-20.409-46.042v46.042h-28.555l-5.394-13.102h-29.23l-5.45 13.102h-15.249l25.141-58.735h20.858l23.878 55.609v-55.609h22.912l18.373 39.844 16.878-39.844h23.375v58.735h-14.391zm107.639-29.261l25.846 29.274h-17.597l-17.287-19.447-17.965 19.447h-16.347v-.016h-39.264V120.43h31.488v-.001h24.978l17.271 19.257 17.857-19.257h18.536l-27.516 29.476z"/></svg>