<svg xmlns="http://www.w3.org/2000/svg" xmlns:xlink="http://www.w3.org/1999/xlink" width="485.576" height="299.489" viewBox="-218.405 -94.77 485.576 299.489"><path fill="#F2F2F2" d="M241.475 204.719h-434.184c-14.133 0-25.696-11.562-25.696-25.695V-69.073c0-14.133 11.563-25.697 25.696-25.697h434.184c14.133 0 25.696 11.564 25.696 25.697v248.097c0 14.133-11.564 25.695-25.696 25.695"/><path fill="#E6B73A" d="M148.021 51.041l-.276-3.748-.474-3.696-.65-3.623-.825-3.574-.999-3.496-1.174-3.448-1.324-3.348-1.499-3.273-1.624-3.197-1.799-3.073-1.923-3.023-2.074-2.897-2.198-2.773-2.324-2.698-2.473-2.573-2.573-2.449-2.697-2.323-2.799-2.2-2.898-2.072-3.022-1.924-3.099-1.775-3.198-1.622-3.297-1.499-3.373-1.324-3.447-1.175-3.523-.999-3.572-.824-3.673-.65-3.696-.474-3.774-.275-3.821-.1-3.798.1-3.771.275-3.699.474-3.647.65-3.572.824-3.523.999-3.423 1.175-3.372 1.324-3.273 1.499-3.172 1.622-3.098 1.775-2.998 1.924-2.898 2.072-2.798 2.2L24.383 0l.174.152 2.573 2.449 2.449 2.573 2.323 2.698 2.2 2.773 2.047 2.897 1.924 3.023 1.773 3.073 1.649 3.197 1.474 3.273 1.325 3.348 1.148 3.448 1 3.496.824 3.574.65 3.623.474 3.696.275 3.748.1 3.797-.1 3.823-.275 3.771-.474 3.697-.65 3.673-.824 3.573-1 3.523-1.148 3.446-1.325 3.373-1.474 3.297-1.649 3.198-1.773 3.099-1.924 3.022-2.047 2.899-2.2 2.798-2.323 2.699-2.449 2.571-2.573 2.473-.174.152 2.498 2.173 2.798 2.197 2.898 2.075 2.998 1.922 3.098 1.799 3.172 1.624 3.273 1.499 3.372 1.325 3.423 1.173 3.523 1 3.572.825 3.647.651 3.699.473 3.771.275 3.798.099 3.821-.099 3.774-.275 3.696-.473 3.673-.651 3.572-.825 3.523-1 3.447-1.173 3.373-1.325 3.297-1.499 3.198-1.624 3.099-1.799 3.022-1.922 2.898-2.075 2.799-2.197 2.697-2.325 2.573-2.473 2.473-2.571 2.324-2.699 2.198-2.798 2.074-2.899 1.923-3.022 1.799-3.099 1.624-3.198 1.499-3.297 1.324-3.373 1.174-3.446.999-3.523.825-3.573.65-3.673.474-3.697.276-3.771.099-3.823z"/><path fill="#BE0024" d="M21.635 107.301l-2.448-2.572-2.324-2.7-2.198-2.797-2.049-2.899-1.924-3.022-1.773-3.099-1.649-3.196-1.474-3.299-1.324-3.372-1.149-3.449-1-3.521-.823-3.572-.65-3.674-.475-3.695L.1 58.66 0 54.838l.1-3.797.275-3.748.475-3.697.65-3.622.823-3.573 1-3.497 1.149-3.448 1.324-3.348 1.474-3.272 1.649-3.198 1.773-3.073 1.924-3.022 2.049-2.899 2.198-2.772 2.324-2.699L21.635 2.6 24.208.152 24.383 0l-2.498-2.171-2.798-2.199-2.898-2.073-2.998-1.924-3.098-1.774-3.173-1.623-3.272-1.499-3.373-1.324-3.423-1.175-3.522-.999-3.573-.824-3.647-.65-3.697-.475-3.773-.274-3.797-.1-3.822.1-3.773.274-3.697.475-3.672.65-3.573.824-3.522.999-3.448 1.175-3.373 1.324-3.297 1.499-3.198 1.623-3.098 1.774-3.022 1.924-2.898 2.073-2.799 2.199-2.698 2.323L-77.62 2.6l-2.473 2.573-2.323 2.699-2.199 2.772-2.073 2.899-1.924 3.022-1.799 3.073-1.624 3.198-1.498 3.272-1.324 3.348-1.174 3.448-1 3.497-.824 3.573-.65 3.622-.475 3.697-.275 3.748-.099 3.797.099 3.822.275 3.774.475 3.695.65 3.674.824 3.572 1 3.521 1.174 3.449 1.324 3.372 1.498 3.299 1.624 3.196 1.799 3.099 1.924 3.022 2.073 2.899 2.199 2.797 2.323 2.7 2.473 2.572 2.573 2.472 2.698 2.325 2.799 2.197 2.898 2.074 3.022 1.923 3.098 1.8 3.198 1.623 3.297 1.499 3.373 1.325 3.448 1.172 3.522 1 3.573.825 3.672.65 3.697.474 3.773.276 3.822.099 3.797-.099 3.773-.276 3.697-.474 3.647-.65 3.573-.825 3.522-1 3.423-1.172 3.373-1.325 3.272-1.499 3.173-1.623 3.098-1.8 2.998-1.923 2.898-2.074 2.798-2.197 2.498-2.172-.175-.153z"/><g opacity=".7"><defs><path id="a" d="M0 0h48.766v109.926H0z"/></defs><clipPath id="b"><use xlink:href="#a" overflow="visible"/></clipPath><path clip-path="url(#b)" fill="#E6B73A" d="M27.131 107.301l2.447-2.572 2.324-2.7 2.199-2.797 2.047-2.899 1.924-3.022 1.775-3.099 1.648-3.196 1.475-3.299 1.324-3.372 1.148-3.449.999-3.521.826-3.572.648-3.674.476-3.695.274-3.774.101-3.822-.101-3.797-.274-3.748-.476-3.697-.648-3.622-.826-3.573-.999-3.497-1.148-3.448-1.324-3.348-1.475-3.272-1.648-3.198-1.775-3.073-1.924-3.022-2.047-2.899-2.199-2.772-2.324-2.699L27.131 2.6 24.558.152 24.382 0l-.174.152L21.635 2.6l-2.448 2.573-2.325 2.699-2.197 2.772-2.048 2.899-1.925 3.022-1.774 3.073-1.648 3.198-1.475 3.272-1.323 3.348-1.15 3.448-.998 3.497-.824 3.573-.65 3.622-.475 3.697L.1 51.041 0 54.838l.1 3.822.275 3.774.475 3.695.65 3.674.824 3.572.998 3.521 1.15 3.449 1.323 3.372 1.475 3.299 1.648 3.196 1.774 3.099 1.925 3.022 2.048 2.899 2.197 2.797 2.325 2.7 2.448 2.572 2.573 2.472.174.153.176-.153z"/></g><g opacity=".5"><defs><path id="c" d="M0 0h48.766v109.926H0z"/></defs><clipPath id="d"><use xlink:href="#c" overflow="visible"/></clipPath><path clip-path="url(#d)" fill="#BE0024" d="M27.131 107.301l2.447-2.572 2.324-2.7 2.199-2.797 2.047-2.899 1.924-3.022 1.775-3.099 1.648-3.196 1.475-3.299 1.324-3.372 1.148-3.449.999-3.521.826-3.572.648-3.674.476-3.695.274-3.774.101-3.822-.101-3.797-.274-3.748-.476-3.697-.648-3.622-.826-3.573-.999-3.497-1.148-3.448-1.324-3.348-1.475-3.272-1.648-3.198-1.775-3.073-1.924-3.022-2.047-2.899-2.199-2.772-2.324-2.699L27.131 2.6 24.558.152 24.382 0l-.174.152L21.635 2.6l-2.448 2.573-2.325 2.699-2.197 2.772-2.048 2.899-1.925 3.022-1.774 3.073-1.648 3.198-1.475 3.272-1.323 3.348-1.15 3.448-.998 3.497-.824 3.573-.65 3.622-.475 3.697L.1 51.041 0 54.838l.1 3.822.275 3.774.475 3.695.65 3.674.824 3.572.998 3.521 1.15 3.449 1.323 3.372 1.475 3.299 1.648 3.196 1.774 3.099 1.925 3.022 2.048 2.899 2.197 2.797 2.325 2.7 2.448 2.572 2.573 2.472.174.153.176-.153z"/></g></svg>