<svg xmlns="http://www.w3.org/2000/svg" width="485.576" height="299.489" viewBox="0 0 485.576 299.489"><path fill="#2A75AD" d="M459.879 299.489H25.696C11.563 299.489 0 287.926 0 273.792V25.697C0 11.564 11.563 0 25.696 0H459.88c14.133 0 25.696 11.564 25.696 25.697v248.096c0 14.133-11.564 25.696-25.697 25.696"/><path fill-rule="evenodd" clip-rule="evenodd" fill="#FFF" d="M192.88 188.534l23.678-78.078h21.122l-23.674 78.078zm-9.454-78.056l-19.004 33.088c-4.826 8.677-7.659 13.053-9.018 18.528h-.293c.344-6.944-.632-15.458-.715-20.287l-2.105-31.329h-35.559l-.363 2.097c9.134 0 14.552 4.598 16.05 13.98l6.919 61.978h21.89l44.259-78.055h-22.061zm164.288 78.055l-.583-11.616-26.369-.019-5.408 11.635h-22.928l41.585-77.924h28.144l7.052 77.924h-21.493zm-2.425-46.058c-.229-5.771-.424-13.603-.035-18.345h-.313c-1.281 3.88-6.801 15.522-9.242 21.245l-7.85 17.112h18.521l-1.081-20.012zm-85.421 48.27c-14.922 0-24.823-4.726-31.882-8.944l10.056-15.38c6.345 3.559 11.325 7.653 22.793 7.653 3.674 0 7.232-.96 9.246-4.458 2.938-5.073-.674-7.807-8.93-12.474l-4.075-2.656c-12.231-8.356-17.532-16.303-11.766-30.161 3.686-8.855 13.398-15.58 29.439-15.58 11.057 0 21.423 4.789 27.467 9.459l-11.568 13.566c-5.897-4.767-10.783-7.177-16.38-7.177-4.453 0-7.85 1.721-9.013 4.039-2.197 4.363.715 7.328 7.141 11.324l4.85 3.077c14.853 9.368 18.395 19.19 14.664 28.367-6.399 15.814-18.938 19.345-32.042 19.345"/></svg>